PathFileType	4	(X/Y/Z)	OpenSim_Sub08_CSStiffKnee_Magnet.trc
DataRate	CameraRate	NumFrames	NumMarkers	Units	OrigDataRate	OrigDataStartFrame	OrigNumFrames
100	100	40	8	m	100	3302	5282
Frame#	Time	torso_imu_offset_imu	pelvis_imu_offset_imu	tibia_r_imu_offset_imu	femur_r_imu_offset_imu	tibia_l_imu_offset_imu	femur_l_imu_offset_imu	toes_r_imu_offset_imu	toes_l_imu_offset_imu
				X1	Y1	Z1	X2	Y2	Z2	X3	Y3	Z3	X4	Y4	Z4	X5	Y5	Z5	X6	Y6	Z6	X7	Y7	Z7	X8		Y8	Z8	

3302	33.01000000	-0.93806490	-0.21039068	0.08589392	-0.59635780	0.24061531	-0.71610313	-0.72475188	-0.48055252	0.04124339	-0.78527590	-0.33017276	-0.01978091	-0.10973144	0.81472826	0.21951599	-0.60348403	-0.01506299	0.28553731	-0.61548567	-0.23536662	-0.52244139	-0.77163189	0.05019434	0.34093690
3303	33.02000000	-0.93914783	-0.20855956	0.08849014	-0.60078450	0.23386105	-0.71364557	-0.71748034	-0.48699689	0.04142091	-0.78577093	-0.33819807	-0.02013345	-0.12254692	0.82404168	0.19502909	-0.60592019	-0.03617697	0.27752777	-0.61400418	-0.24336563	-0.52233837	-0.78249863	0.05453446	0.32438877
3304	33.03000000	-0.93956066	-0.21226758	0.09017526	-0.60130531	0.23073986	-0.71181797	-0.71498776	-0.48717043	0.03083547	-0.78450074	-0.34212046	-0.02755305	-0.12966401	0.81775541	0.17468329	-0.60888234	-0.05009987	0.27189572	-0.61432024	-0.24917875	-0.53188114	-0.78968584	0.05982621	0.30001366
3305	33.04000000	-0.93563651	-0.21013261	0.09453958	-0.60092914	0.23188338	-0.71413843	-0.71257535	-0.49431589	0.02929858	-0.78151647	-0.34354997	-0.02819409	-0.14386042	0.81039345	0.16263289	-0.61855256	-0.06594418	0.26950322	-0.62045788	-0.25454825	-0.54203208	-0.79154349	0.06828384	0.26608358
3306	33.05000000	-0.93291391	-0.20916697	0.09434916	-0.60243178	0.22911823	-0.71306119	-0.71055920	-0.50239478	0.03303209	-0.77495049	-0.34672891	-0.02434407	-0.16675082	0.81539455	0.15229479	-0.61765240	-0.08059429	0.26480678	-0.62528238	-0.25801911	-0.53934155	-0.80011893	0.06846567	0.24002263
3307	33.06000000	-0.93606911	-0.20884813	0.09843888	-0.60308326	0.22643019	-0.71590420	-0.70589910	-0.51224851	0.02585867	-0.77325444	-0.35824950	-0.02640723	-0.18767231	0.81291572	0.13840583	-0.61692434	-0.09059354	0.26059417	-0.63057810	-0.26418793	-0.53543408	-0.81126415	0.06687848	0.21480603
3308	33.07000000	-0.93825715	-0.21136378	0.10152492	-0.60486418	0.22798288	-0.71827550	-0.70003639	-0.51391657	0.02094221	-0.77219948	-0.36300207	-0.03350899	-0.21622582	0.80437319	0.13548163	-0.62674912	-0.10225969	0.25552992	-0.63414284	-0.26674241	-0.54267523	-0.82387386	0.05192939	0.18533024
3309	33.08000000	-0.93828391	-0.21425276	0.10584317	-0.60239878	0.22287317	-0.71952853	-0.70376358	-0.51704523	0.01515912	-0.77027338	-0.36350782	-0.03401331	-0.24683142	0.79594741	0.13845438	-0.62934506	-0.11859134	0.24704140	-0.63259218	-0.27013191	-0.54603024	-0.82512455	0.03616507	0.15336951
3310	33.09000000	-0.93531783	-0.21253929	0.11255539	-0.60425495	0.21722307	-0.71870561	-0.69767743	-0.52147965	0.01769545	-0.76557325	-0.36979588	-0.03197639	-0.28219663	0.78420818	0.14041222	-0.62601201	-0.13177907	0.24846097	-0.63605446	-0.27876743	-0.54316220	-0.83406371	0.02368571	0.11461148
3311	33.10000000	-0.93574016	-0.21046246	0.11324775	-0.60436131	0.22131480	-0.71997928	-0.68686222	-0.52618729	0.01183747	-0.76148885	-0.36745404	-0.03278537	-0.32289905	0.76579950	0.15823336	-0.62917938	-0.14011987	0.25032472	-0.64112225	-0.28273562	-0.54651934	-0.85476525	0.01044908	0.07360720
3312	33.11000000	-0.93744379	-0.20760625	0.11761997	-0.60201868	0.21456734	-0.72290851	-0.68753333	-0.53466043	0.00850193	-0.76516345	-0.37260858	-0.03842164	-0.35424841	0.74551996	0.17822135	-0.62942520	-0.15350482	0.24022903	-0.64784567	-0.28975221	-0.54734082	-0.86406329	-0.00273816	0.02705595
3313	33.12000000	-0.93600718	-0.20941803	0.12513472	-0.60484472	0.21491247	-0.72230930	-0.68583884	-0.53802111	0.00988120	-0.76446708	-0.37847225	-0.04070170	-0.39401992	0.71852142	0.19552912	-0.62255968	-0.16199836	0.23538217	-0.65174230	-0.29388091	-0.54655676	-0.87043896	-0.02183507	-0.02225402
3314	33.13000000	-0.93373085	-0.21079425	0.13010238	-0.60085683	0.22003515	-0.72235678	-0.68434520	-0.54180164	0.00708891	-0.76217484	-0.38053305	-0.03815107	-0.43246589	0.68865437	0.21071315	-0.62441682	-0.16569560	0.23932229	-0.65381687	-0.30282014	-0.54893291	-0.87100836	-0.04230593	-0.07509387
3315	33.14000000	-0.93139303	-0.20885110	0.13665127	-0.59664698	0.21640930	-0.72371184	-0.67824950	-0.54968622	0.00473116	-0.75909945	-0.38552868	-0.03944990	-0.46834113	0.66342697	0.21619776	-0.62913303	-0.16890259	0.23967105	-0.65904685	-0.31194702	-0.55144211	-0.85680047	-0.06507494	-0.13000751
3316	33.15000000	-0.93081467	-0.20920574	0.13762217	-0.59885800	0.22197291	-0.72434962	-0.67171719	-0.55751799	-0.00169044	-0.75489350	-0.38692110	-0.04238959	-0.50343347	0.63416801	0.20959044	-0.63294742	-0.17309903	0.24123488	-0.65848136	-0.31456704	-0.55089940	-0.84256690	-0.08951393	-0.17166173
3317	33.16000000	-0.92933230	-0.20304458	0.14074119	-0.59971891	0.21961145	-0.72077882	-0.66469825	-0.56103006	-0.00501779	-0.75678904	-0.38929693	-0.04166239	-0.53672198	0.60556298	0.20346498	-0.63149879	-0.17300392	0.24161830	-0.66262358	-0.32044056	-0.55013416	-0.82087656	-0.11098610	-0.21432095
3318	33.17000000	-0.93046938	-0.20450681	0.14572822	-0.60065536	0.21821493	-0.72102647	-0.66122170	-0.57122426	-0.01147102	-0.75795972	-0.39085407	-0.04245550	-0.57261022	0.57785517	0.19896250	-0.63479118	-0.17596254	0.23855128	-0.66413858	-0.32456960	-0.54714684	-0.79769560	-0.13029742	-0.25791947
3319	33.18000000	-0.93277418	-0.21019255	0.14914983	-0.60242613	0.22747470	-0.72336243	-0.66142519	-0.57491026	-0.01345826	-0.74933721	-0.39521866	-0.04684550	-0.60509063	0.54508332	0.18583565	-0.63420800	-0.17655356	0.24552333	-0.66592911	-0.32705229	-0.54841836	-0.78073003	-0.14806736	-0.29477217
3320	33.19000000	-0.92696466	-0.20905935	0.15162473	-0.59468322	0.22729266	-0.72155106	-0.65520552	-0.57514970	-0.01205818	-0.74621980	-0.40083142	-0.04646812	-0.63462228	0.51351191	0.17594889	-0.62637983	-0.17065098	0.24554290	-0.66924472	-0.33185100	-0.55165985	-0.75903954	-0.16110040	-0.31726324
3321	33.20000000	-0.92384979	-0.20866929	0.15154663	-0.59416060	0.23374380	-0.72054085	-0.64936322	-0.57837882	-0.02378864	-0.74753596	-0.40401479	-0.05060641	-0.65976390	0.48043029	0.17479127	-0.62849094	-0.16803327	0.24566343	-0.67222886	-0.33455758	-0.54785872	-0.73981105	-0.16852740	-0.34050051
3322	33.21000000	-0.92362416	-0.20452475	0.15704324	-0.59786024	0.23885514	-0.72050355	-0.64727535	-0.58426678	-0.02889489	-0.74309750	-0.40397765	-0.05460289	-0.68548902	0.44559518	0.17325851	-0.62695879	-0.16527119	0.24571101	-0.67501120	-0.33843417	-0.54822650	-0.72229713	-0.17003837	-0.37496434
3323	33.22000000	-0.92831256	-0.20351708	0.15970177	-0.59588108	0.24342490	-0.71522406	-0.64038102	-0.58843045	-0.02966967	-0.74149828	-0.40783947	-0.06185242	-0.70429917	0.40704772	0.17251982	-0.62508677	-0.16602971	0.25312029	-0.67185285	-0.34441998	-0.55025141	-0.71069132	-0.17582587	-0.40744602
3324	33.23000000	-0.92727211	-0.20580269	0.16264554	-0.59576445	0.25109902	-0.71837344	-0.63171732	-0.59747104	-0.03461668	-0.73890737	-0.41022248	-0.06831779	-0.71817131	0.37305030	0.17648608	-0.62095539	-0.16398811	0.26286234	-0.66958991	-0.34565353	-0.54636124	-0.69107035	-0.18235379	-0.43775610
3325	33.24000000	-0.92753900	-0.20319091	0.16081695	-0.59277789	0.25190402	-0.71828891	-0.62825270	-0.60591327	-0.03843522	-0.73796286	-0.41541512	-0.06801467	-0.74027721	0.33579697	0.17146035	-0.62043154	-0.15821111	0.26858036	-0.66983826	-0.34791879	-0.54189064	-0.66601779	-0.18853959	-0.45822671
3326	33.25000000	-0.92751188	-0.20582941	0.15944830	-0.59324239	0.25544590	-0.71556917	-0.62361439	-0.60598250	-0.04412369	-0.73746607	-0.41636829	-0.07008566	-0.75663321	0.30167772	0.17511765	-0.62046357	-0.15931258	0.26935396	-0.67083316	-0.35007433	-0.54617569	-0.65212136	-0.20304321	-0.48205170
3327	33.26000000	-0.92738399	-0.20218981	0.16135024	-0.59479769	0.25927052	-0.72109853	-0.61993625	-0.61154461	-0.05048165	-0.73325461	-0.42085059	-0.07580568	-0.76279181	0.27750192	0.17506868	-0.62061517	-0.15961557	0.26771256	-0.67222009	-0.35139277	-0.55029209	-0.63388151	-0.21483194	-0.50666199
3328	33.27000000	-0.92862430	-0.19558460	0.16017950	-0.59418424	0.25892467	-0.71369470	-0.61246238	-0.61333644	-0.05891335	-0.73137048	-0.42659646	-0.08298875	-0.77297816	0.24047662	0.17368139	-0.61973262	-0.15678340	0.26746280	-0.67129236	-0.35076809	-0.54751731	-0.61032496	-0.22391417	-0.52431860
3329	33.28000000	-0.92370183	-0.19573791	0.16241202	-0.59566261	0.26368520	-0.71236054	-0.60892738	-0.61974289	-0.06411709	-0.72230483	-0.42937392	-0.08009346	-0.77953979	0.21115235	0.16960490	-0.61746573	-0.15639658	0.26320697	-0.67431823	-0.35936376	-0.55041104	-0.58790377	-0.23381052	-0.53702350
3330	33.29000000	-0.92472776	-0.19504688	0.16777378	-0.59741384	0.26937043	-0.71228476	-0.60343911	-0.62275112	-0.06743217	-0.71757318	-0.43775721	-0.08656715	-0.78512955	0.18749660	0.16300550	-0.62164596	-0.16105076	0.26830268	-0.67290784	-0.36631574	-0.55259651	-0.57159810	-0.25041902	-0.55051904
3331	33.30000000	-0.92502774	-0.19793233	0.16936260	-0.59665279	0.27281635	-0.70690343	-0.59697566	-0.62384114	-0.07640324	-0.71947307	-0.44362110	-0.09570181	-0.79231149	0.15845951	0.16958408	-0.61778043	-0.16000324	0.27094419	-0.66850566	-0.36549564	-0.55219065	-0.55349884	-0.26365891	-0.57184546
3332	33.31000000	-0.92963704	-0.19849404	0.17110507	-0.59953239	0.27879981	-0.70232102	-0.59776973	-0.63636883	-0.08191249	-0.71282179	-0.44910478	-0.09755024	-0.79214385	0.14253073	0.16174055	-0.61728396	-0.15294802	0.26791795	-0.67040578	-0.36948643	-0.55211689	-0.54008930	-0.26324471	-0.58476923
3333	33.32000000	-0.92838462	-0.19281250	0.16883226	-0.60214267	0.28212065	-0.70018373	-0.59074079	-0.63775068	-0.08221528	-0.70658276	-0.45209867	-0.09405185	-0.79753447	0.12871620	0.16154046	-0.61791687	-0.15184919	0.27179503	-0.66494684	-0.37213652	-0.55306190	-0.53861559	-0.25874175	-0.59231288
3334	33.33000000	-0.92344473	-0.19096220	0.16998425	-0.60215906	0.28189770	-0.69985568	-0.57976410	-0.64026545	-0.08986750	-0.70724590	-0.46054940	-0.10067487	-0.79988300	0.12107674	0.16753085	-0.61606445	-0.14932134	0.27203694	-0.66696811	-0.37609876	-0.55521464	-0.52865385	-0.26599743	-0.59636411
3335	33.34000000	-0.92794808	-0.19156445	0.17326397	-0.59981898	0.28734155	-0.69585679	-0.57509667	-0.64863140	-0.09765047	-0.70811713	-0.46568297	-0.10856719	-0.79630028	0.11930622	0.17071787	-0.61682995	-0.14734943	0.27436584	-0.66913560	-0.38180107	-0.55713255	-0.52340553	-0.27248267	-0.59211680
3336	33.35000000	-0.92497483	-0.19021239	0.17104887	-0.60489079	0.28937971	-0.69225230	-0.56439736	-0.64820531	-0.10446001	-0.70189432	-0.46721584	-0.10949650	-0.79576952	0.12057100	0.17318890	-0.61510162	-0.14458281	0.27771859	-0.66299123	-0.38524219	-0.55902629	-0.52796378	-0.27087353	-0.59284696
3337	33.36000000	-0.92000347	-0.18870188	0.17086243	-0.61221199	0.28756235	-0.69043864	-0.55598428	-0.65606897	-0.10896026	-0.69475635	-0.46913605	-0.12062269	-0.79530826	0.13101666	0.17351353	-0.61615332	-0.14526032	0.27433680	-0.66159724	-0.39046240	-0.56128478	-0.54174247	-0.27195409	-0.58587350
3338	33.37000000	-0.92592392	-0.19005147	0.16668016	-0.60800612	0.29459413	-0.68686488	-0.55550753	-0.66108120	-0.11726083	-0.69248080	-0.47194560	-0.12768048	-0.79197718	0.13933000	0.18121862	-0.61996074	-0.15218266	0.27987046	-0.65985795	-0.39595672	-0.56250482	-0.55415136	-0.26173397	-0.57278378
3339	33.38000000	-0.93098685	-0.19220536	0.16436905	-0.60813741	0.29791675	-0.68344185	-0.54315262	-0.66396111	-0.12509094	-0.68857834	-0.47734041	-0.13550340	-0.78775890	0.15605459	0.18526025	-0.61356634	-0.15537280	0.27991661	-0.66115783	-0.39897186	-0.56098118	-0.56614474	-0.25185079	-0.55994225
3340	33.39000000	-0.92913743	-0.18776585	0.15771740	-0.61279424	0.29517124	-0.68084023	-0.53112951	-0.67336972	-0.13060617	-0.67988308	-0.48319475	-0.14430354	-0.78400861	0.17147814	0.19059265	-0.61012950	-0.16190477	0.28140247	-0.66233622	-0.39972608	-0.55981396	-0.58272870	-0.24386226	-0.54355833
3341	33.40000000	-0.92665082	-0.18566885	0.16148923	-0.61152313	0.29166228	-0.67193472	-0.52849797	-0.67493801	-0.13974624	-0.68188572	-0.48410696	-0.15480717	-0.77801993	0.17738084	0.20172066	-0.61003801	-0.16374474	0.28270550	-0.66218192	-0.40010232	-0.56036111	-0.59976848	-0.24059380	-0.52778916
